<?xml version="1.0" encoding="UTF-8"?>
<svg xmlns="http://www.w3.org/2000/svg" xmlns:xlink="http://www.w3.org/1999/xlink" width="283.465pt" height="215.433pt" viewBox="0 0 283.465 215.433">
<defs>
<clipPath id="clip-0">
<path clip-rule="nonzero" d="M 44 156 L 104 156 L 104 214.867188 L 44 214.867188 Z M 44 156 "/>
</clipPath>
<clipPath id="clip-1">
<path clip-rule="nonzero" d="M 0.105469 0 L 87 0 L 87 147 L 0.105469 147 Z M 0.105469 0 "/>
</clipPath>
<clipPath id="clip-2">
<path clip-rule="nonzero" d="M 230 22 L 282.824219 22 L 282.824219 148 L 230 148 Z M 230 22 "/>
</clipPath>
</defs>
<path fill-rule="nonzero" fill="rgb(0%, 0%, 0%)" fill-opacity="1" d="M 5.363281 200.144531 C 2.871094 195.855469 1.628906 190.902344 1.628906 185.277344 C 1.628906 179.761719 2.859375 174.914062 5.324219 170.734375 C 7.785156 166.554688 11.230469 163.289062 15.648438 160.929688 C 20.066406 158.574219 25.140625 157.394531 30.875 157.394531 C 32.269531 157.394531 33.445312 157.449219 34.410156 157.554688 C 35.375 157.664062 36.203125 157.71875 36.902344 157.71875 C 37.648438 157.71875 38.429688 157.585938 39.230469 157.316406 L 39.230469 168.644531 L 38.589844 168.644531 C 38.214844 168.214844 37.691406 167.816406 37.023438 167.441406 C 36.351562 167.066406 35.667969 166.769531 34.972656 166.554688 C 34.117188 166.289062 33.246094 166.074219 32.359375 165.914062 C 31.480469 165.75 30.472656 165.671875 29.347656 165.671875 C 25.816406 165.671875 22.625 166.542969 19.785156 168.28125 C 16.945312 170.023438 14.683594 172.378906 12.996094 175.351562 C 11.308594 178.324219 10.464844 181.636719 10.464844 185.277344 C 10.464844 189.1875 11.324219 192.667969 13.039062 195.722656 C 14.75 198.777344 17.121094 201.175781 20.148438 202.914062 C 23.175781 204.65625 26.617188 205.527344 30.472656 205.527344 C 32.507812 205.527344 34.277344 205.203125 35.773438 204.5625 C 37.167969 204.027344 38.292969 203.195312 39.152344 202.070312 L 39.714844 202.070312 L 39.714844 212.679688 C 37.464844 213.425781 34.542969 213.804688 30.953125 213.804688 C 25.222656 213.804688 20.148438 212.597656 15.726562 210.1875 C 11.308594 207.777344 7.855469 204.429688 5.363281 200.144531 "/>
<g clip-path="url(#clip-0)">
<path fill-rule="nonzero" fill="rgb(0%, 0%, 0%)" fill-opacity="1" d="M 92.386719 196.488281 C 94.125 193.351562 94.996094 189.726562 94.996094 185.597656 C 94.996094 181.472656 94.125 177.84375 92.386719 174.710938 C 90.644531 171.578125 88.230469 169.128906 85.152344 167.359375 C 82.070312 165.59375 78.496094 164.707031 74.425781 164.707031 C 70.355469 164.707031 66.765625 165.59375 63.660156 167.359375 C 60.550781 169.128906 58.125 171.578125 56.386719 174.710938 C 54.644531 177.84375 53.773438 181.472656 53.773438 185.597656 C 53.773438 189.726562 54.644531 193.351562 56.386719 196.488281 C 58.125 199.621094 60.550781 202.070312 63.660156 203.839844 C 66.765625 205.605469 70.355469 206.492188 74.425781 206.492188 C 78.496094 206.492188 82.070312 205.605469 85.152344 203.839844 C 88.230469 202.070312 90.644531 199.621094 92.386719 196.488281 M 48.710938 200.707031 C 46.195312 196.3125 44.9375 191.277344 44.9375 185.597656 C 44.9375 179.867188 46.195312 174.820312 48.710938 170.453125 C 51.230469 166.089844 54.699219 162.671875 59.117188 160.207031 C 63.535156 157.746094 68.640625 156.511719 74.425781 156.511719 C 80.210938 156.511719 85.3125 157.746094 89.730469 160.207031 C 94.152344 162.671875 97.605469 166.089844 100.097656 170.453125 C 102.589844 174.820312 103.835938 179.867188 103.835938 185.597656 C 103.835938 191.277344 102.589844 196.3125 100.097656 200.707031 C 97.605469 205.097656 94.152344 208.527344 89.730469 210.992188 C 85.3125 213.453125 80.210938 214.6875 74.425781 214.6875 C 68.640625 214.6875 63.535156 213.453125 59.117188 210.992188 C 54.699219 208.527344 51.230469 205.097656 48.710938 200.707031 "/>
</g>
<path fill-rule="nonzero" fill="rgb(0%, 0%, 0%)" fill-opacity="1" d="M 113.640625 166.554688 C 113.640625 164.304688 113.398438 162.539062 112.914062 161.25 C 112.433594 159.96875 111.761719 159.054688 110.90625 158.519531 L 110.90625 157.878906 L 137.503906 157.878906 C 138.574219 157.878906 139.644531 157.824219 140.714844 157.71875 C 141.789062 157.609375 142.75 157.449219 143.609375 157.234375 L 143.609375 168.886719 L 142.964844 168.886719 C 142.429688 167.871094 141.519531 167.105469 140.234375 166.597656 C 138.949219 166.089844 137.207031 165.832031 135.011719 165.832031 L 122.234375 165.832031 L 122.234375 185.921875 L 139.914062 185.921875 C 141.789062 185.921875 143.179688 185.734375 144.089844 185.359375 C 145 184.984375 145.699219 184.527344 146.179688 183.992188 L 146.824219 183.992188 L 146.824219 195.804688 L 146.179688 195.804688 C 145.699219 195.214844 145 194.746094 144.089844 194.398438 C 143.179688 194.050781 141.789062 193.875 139.914062 193.875 L 122.234375 193.875 L 122.234375 204.882812 C 122.234375 207.132812 122.476562 208.859375 122.960938 210.066406 C 123.441406 211.273438 124.164062 212.140625 125.128906 212.679688 L 125.128906 213.320312 L 111.148438 213.320312 L 111.148438 212.679688 C 111.949219 212.089844 112.566406 211.179688 112.996094 209.945312 C 113.421875 208.714844 113.640625 207.027344 113.640625 204.882812 Z M 113.640625 166.554688 "/>
<path fill-rule="nonzero" fill="rgb(0%, 0%, 0%)" fill-opacity="1" d="M 156.066406 166.554688 C 156.066406 164.304688 155.824219 162.539062 155.339844 161.25 C 154.859375 159.96875 154.1875 159.054688 153.332031 158.519531 L 153.332031 157.878906 L 179.929688 157.878906 C 181 157.878906 182.070312 157.824219 183.144531 157.71875 C 184.214844 157.609375 185.175781 157.449219 186.035156 157.234375 L 186.035156 168.886719 L 185.394531 168.886719 C 184.855469 167.871094 183.945312 167.105469 182.660156 166.597656 C 181.375 166.089844 179.632812 165.832031 177.4375 165.832031 L 164.664062 165.832031 L 164.664062 185.921875 L 182.339844 185.921875 C 184.214844 185.921875 185.605469 185.734375 186.515625 185.359375 C 187.425781 184.984375 188.125 184.527344 188.605469 183.992188 L 189.25 183.992188 L 189.25 195.804688 L 188.605469 195.804688 C 188.125 195.214844 187.425781 194.746094 186.515625 194.398438 C 185.605469 194.050781 184.214844 193.875 182.339844 193.875 L 164.664062 193.875 L 164.664062 204.882812 C 164.664062 207.132812 164.902344 208.859375 165.386719 210.066406 C 165.867188 211.273438 166.589844 212.140625 167.554688 212.679688 L 167.554688 213.320312 L 153.574219 213.320312 L 153.574219 212.679688 C 154.375 212.089844 154.992188 211.179688 155.421875 209.945312 C 155.847656 208.714844 156.066406 207.027344 156.066406 204.882812 Z M 156.066406 166.554688 "/>
<path fill-rule="nonzero" fill="rgb(0%, 0%, 0%)" fill-opacity="1" d="M 198.488281 166.554688 C 198.488281 164.304688 198.246094 162.539062 197.765625 161.25 C 197.28125 159.96875 196.613281 159.054688 195.753906 158.519531 L 195.753906 157.878906 L 221.707031 157.878906 C 222.78125 157.878906 223.863281 157.824219 224.964844 157.71875 C 226.0625 157.609375 227.039062 157.449219 227.894531 157.234375 L 227.894531 168.886719 L 227.253906 168.886719 C 226.71875 167.871094 225.792969 167.105469 224.480469 166.597656 C 223.167969 166.089844 221.414062 165.832031 219.21875 165.832031 L 207.085938 165.832031 L 207.085938 185.921875 L 224.121094 185.921875 C 225.996094 185.921875 227.402344 185.734375 228.335938 185.359375 C 229.277344 184.984375 229.984375 184.527344 230.46875 183.992188 L 231.03125 183.992188 L 231.03125 195.804688 L 230.46875 195.804688 C 229.984375 195.214844 229.277344 194.746094 228.335938 194.398438 C 227.402344 194.050781 225.996094 193.875 224.121094 193.875 L 207.085938 193.875 L 207.085938 205.367188 L 227.171875 205.367188 C 229.371094 205.367188 231.109375 205.109375 232.394531 204.601562 C 233.683594 204.09375 234.589844 203.328125 235.128906 202.3125 L 235.773438 202.3125 L 235.773438 213.960938 C 234.914062 213.695312 233.933594 213.523438 232.839844 213.441406 C 231.738281 213.359375 230.652344 213.320312 229.582031 213.320312 L 195.753906 213.320312 L 195.753906 212.679688 C 196.613281 212.089844 197.28125 211.164062 197.765625 209.90625 C 198.246094 208.648438 198.488281 206.890625 198.488281 204.644531 Z M 198.488281 166.554688 "/>
<path fill-rule="nonzero" fill="rgb(0%, 0%, 0%)" fill-opacity="1" d="M 244.371094 166.554688 C 244.371094 164.304688 244.128906 162.539062 243.648438 161.25 C 243.164062 159.96875 242.492188 159.054688 241.636719 158.519531 L 241.636719 157.878906 L 267.589844 157.878906 C 268.664062 157.878906 269.746094 157.824219 270.84375 157.71875 C 271.945312 157.609375 272.921875 157.449219 273.777344 157.234375 L 273.777344 168.886719 L 273.136719 168.886719 C 272.601562 167.871094 271.675781 167.105469 270.363281 166.597656 C 269.050781 166.089844 267.296875 165.832031 265.101562 165.832031 L 252.96875 165.832031 L 252.96875 185.921875 L 270.003906 185.921875 C 271.875 185.921875 273.285156 185.734375 274.21875 185.359375 C 275.15625 184.984375 275.867188 184.527344 276.351562 183.992188 L 276.914062 183.992188 L 276.914062 195.804688 L 276.351562 195.804688 C 275.867188 195.214844 275.15625 194.746094 274.21875 194.398438 C 273.285156 194.050781 271.875 193.875 270.003906 193.875 L 252.96875 193.875 L 252.96875 205.367188 L 273.054688 205.367188 C 275.25 205.367188 276.992188 205.109375 278.277344 204.601562 C 279.5625 204.09375 280.472656 203.328125 281.011719 202.3125 L 281.652344 202.3125 L 281.652344 213.960938 C 280.796875 213.695312 279.816406 213.523438 278.722656 213.441406 C 277.621094 213.359375 276.535156 213.320312 275.464844 213.320312 L 241.636719 213.320312 L 241.636719 212.679688 C 242.492188 212.089844 243.164062 211.164062 243.648438 209.90625 C 244.128906 208.648438 244.371094 206.890625 244.371094 204.644531 Z M 244.371094 166.554688 "/>
<g clip-path="url(#clip-1)">
<path fill-rule="nonzero" fill="rgb(0%, 0%, 0%)" fill-opacity="1" d="M 6.605469 15.414062 C 6.605469 11.351562 6.027344 8.273438 4.878906 6.171875 C 3.726562 4.074219 2.136719 2.550781 0.105469 1.601562 L 0.105469 0.179688 L 19.199219 0.179688 L 19.199219 96.65625 L 56.976562 62.332031 C 60.226562 59.21875 60.496094 56.714844 57.789062 54.816406 L 57.789062 53.597656 L 84.597656 53.597656 L 84.597656 54.816406 C 83.242188 55.359375 81.855469 56.105469 80.433594 57.050781 C 79.011719 58 77.289062 59.355469 75.253906 61.113281 L 51.695312 82.4375 L 78.910156 136.261719 C 81.210938 140.730469 83.714844 143.710938 86.425781 145.199219 L 86.425781 146.417969 L 62.660156 146.417969 L 62.660156 145.199219 C 66.453125 143.441406 67.265625 140.394531 65.101562 136.058594 L 42.351562 90.96875 L 19.199219 111.6875 L 19.199219 132.199219 C 19.199219 136.398438 19.636719 139.34375 20.519531 141.035156 C 21.398438 142.730469 22.78125 144.117188 24.683594 145.199219 L 24.683594 146.417969 L 1.324219 146.417969 L 1.324219 145.199219 C 3.21875 144.117188 4.574219 142.730469 5.386719 141.035156 C 6.199219 139.34375 6.605469 136.398438 6.605469 132.199219 Z M 6.605469 15.414062 "/>
</g>
<path fill-rule="nonzero" fill="rgb(0%, 0%, 0%)" fill-opacity="1" d="M 102.675781 68.832031 C 102.675781 64.769531 102.09375 61.691406 100.949219 59.589844 C 99.796875 57.492188 98.207031 55.96875 96.171875 55.019531 L 96.171875 53.597656 L 114.65625 53.597656 L 114.65625 64.363281 C 117.5 60.300781 121.425781 57.019531 126.4375 54.511719 C 131.445312 52.007812 136.726562 50.757812 142.28125 50.757812 C 151.484375 50.757812 158.695312 53.597656 163.910156 59.285156 C 169.121094 64.972656 171.730469 72.757812 171.730469 82.644531 L 171.730469 132.199219 C 171.730469 136.398438 172.167969 139.34375 173.050781 141.035156 C 173.929688 142.730469 175.316406 144.117188 177.214844 145.199219 L 177.214844 146.417969 L 153.855469 146.417969 L 153.855469 145.199219 C 155.753906 144.117188 157.109375 142.730469 157.917969 141.035156 C 158.730469 139.34375 159.136719 136.398438 159.136719 132.199219 L 159.136719 84.878906 C 159.136719 77.972656 157.375 72.523438 153.855469 68.527344 C 150.335938 64.535156 145.394531 62.535156 139.03125 62.535156 C 134.289062 62.535156 129.753906 63.722656 125.421875 66.089844 C 121.085938 68.460938 117.703125 71.675781 115.265625 75.738281 L 115.265625 132.199219 C 115.265625 136.398438 115.703125 139.34375 116.585938 141.035156 C 117.464844 142.730469 118.851562 144.117188 120.753906 145.199219 L 120.753906 146.417969 L 97.394531 146.417969 L 97.394531 145.199219 C 99.289062 144.117188 100.640625 142.730469 101.457031 141.035156 C 102.269531 139.34375 102.675781 136.398438 102.675781 132.199219 Z M 102.675781 68.832031 "/>
<path fill-rule="nonzero" fill="rgb(0%, 0%, 0%)" fill-opacity="1" d="M 197.925781 24.757812 C 196.03125 22.859375 195.085938 20.5625 195.085938 17.851562 C 195.085938 15.007812 196.03125 12.671875 197.925781 10.84375 C 199.824219 9.015625 202.195312 8.101562 205.039062 8.101562 C 207.878906 8.101562 210.246094 9.015625 212.144531 10.84375 C 214.039062 12.671875 214.988281 15.007812 214.988281 17.851562 C 214.988281 20.5625 214.039062 22.859375 212.144531 24.757812 C 210.246094 26.65625 207.878906 27.601562 205.039062 27.601562 C 202.195312 27.601562 199.824219 26.65625 197.925781 24.757812 M 212.144531 132.199219 C 212.144531 136.398438 212.582031 139.34375 213.464844 141.035156 C 214.34375 142.730469 215.730469 144.117188 217.628906 145.199219 L 217.628906 146.417969 L 194.273438 146.417969 L 194.273438 145.199219 C 196.167969 144.117188 197.519531 142.730469 198.335938 141.035156 C 199.148438 139.34375 199.554688 136.398438 199.554688 132.199219 L 199.554688 68.828125 C 199.554688 64.769531 198.972656 61.691406 197.828125 59.589844 C 196.671875 57.492188 195.085938 55.96875 193.054688 55.019531 L 193.054688 53.597656 L 212.144531 53.597656 Z M 212.144531 132.199219 "/>
<g clip-path="url(#clip-2)">
<path fill-rule="nonzero" fill="rgb(0%, 0%, 0%)" fill-opacity="1" d="M 246.46875 64.363281 L 230.015625 64.363281 L 230.015625 53.597656 L 246.46875 53.597656 L 246.46875 39.382812 C 246.46875 36.808594 246.09375 35.015625 245.351562 34 C 244.605469 32.984375 243.492188 32.273438 242 31.867188 L 242 30.644531 L 258.25 22.929688 L 259.0625 22.929688 L 259.0625 53.597656 L 279.574219 53.597656 L 279.574219 64.363281 L 259.0625 64.363281 L 259.0625 115.75 C 259.0625 122.789062 260.246094 127.832031 262.617188 130.878906 C 264.984375 133.929688 268.269531 135.449219 272.46875 135.449219 C 276.53125 135.449219 279.640625 133.621094 281.808594 129.964844 L 282.824219 129.964844 L 282.824219 146.011719 C 282.28125 146.148438 281.0625 146.449219 279.167969 146.925781 C 277.273438 147.398438 274.972656 147.636719 272.261719 147.636719 C 263.460938 147.636719 256.960938 145.03125 252.765625 139.816406 C 248.566406 134.605469 246.46875 126.851562 246.46875 116.5625 Z M 246.46875 64.363281 "/>
</g>
</svg>
