<?xml version="1.0" encoding="UTF-8"?>
<svg xmlns="http://www.w3.org/2000/svg" xmlns:xlink="http://www.w3.org/1999/xlink" width="283.465pt" height="70.8661pt" viewBox="0 0 283.465 70.8661">
<defs>
<clipPath id="clip-0">
<path clip-rule="nonzero" d="M 149 43 L 168 43 L 168 70.734375 L 149 70.734375 Z M 149 43 "/>
</clipPath>
<clipPath id="clip-1">
<path clip-rule="nonzero" d="M 169 42 L 199 42 L 199 70.734375 L 169 70.734375 Z M 169 42 "/>
</clipPath>
<clipPath id="clip-2">
<path clip-rule="nonzero" d="M 241 43 L 262 43 L 262 70.734375 L 241 70.734375 Z M 241 43 "/>
</clipPath>
<clipPath id="clip-3">
<path clip-rule="nonzero" d="M 263 43 L 282.929688 43 L 282.929688 70.734375 L 263 70.734375 Z M 263 43 "/>
</clipPath>
<clipPath id="clip-4">
<path clip-rule="nonzero" d="M 109 11 L 135 11 L 135 70.734375 L 109 70.734375 Z M 109 11 "/>
</clipPath>
</defs>
<g clip-path="url(#clip-0)">
<path fill-rule="nonzero" fill="rgb(0%, 0%, 0%)" fill-opacity="1" d="M 151.097656 63.605469 C 149.910156 61.5625 149.316406 59.199219 149.316406 56.511719 C 149.316406 53.878906 149.902344 51.566406 151.078125 49.574219 C 152.253906 47.582031 153.898438 46.019531 156.007812 44.894531 C 158.113281 43.773438 160.535156 43.207031 163.269531 43.207031 C 163.9375 43.207031 164.5 43.234375 164.957031 43.285156 C 165.417969 43.335938 165.8125 43.363281 166.148438 43.363281 C 166.503906 43.363281 166.875 43.300781 167.257812 43.171875 L 167.257812 48.578125 L 166.953125 48.578125 C 166.773438 48.371094 166.523438 48.179688 166.203125 48 C 165.882812 47.824219 165.558594 47.679688 165.226562 47.582031 C 164.816406 47.453125 164.402344 47.347656 163.980469 47.273438 C 163.558594 47.195312 163.078125 47.15625 162.542969 47.15625 C 160.855469 47.15625 159.335938 47.574219 157.980469 48.402344 C 156.625 49.234375 155.546875 50.359375 154.742188 51.777344 C 153.933594 53.195312 153.53125 54.777344 153.53125 56.511719 C 153.53125 58.378906 153.941406 60.039062 154.761719 61.496094 C 155.578125 62.953125 156.707031 64.097656 158.152344 64.929688 C 159.597656 65.757812 161.238281 66.175781 163.078125 66.175781 C 164.050781 66.175781 164.894531 66.019531 165.609375 65.714844 C 166.273438 65.457031 166.8125 65.0625 167.222656 64.527344 L 167.488281 64.527344 L 167.488281 69.585938 C 166.414062 69.945312 165.023438 70.125 163.308594 70.125 C 160.574219 70.125 158.152344 69.546875 156.042969 68.398438 C 153.933594 67.246094 152.289062 65.652344 151.097656 63.605469 "/>
</g>
<g clip-path="url(#clip-1)">
<path fill-rule="nonzero" fill="rgb(0%, 0%, 0%)" fill-opacity="1" d="M 192.621094 61.863281 C 193.449219 60.367188 193.867188 58.636719 193.867188 56.667969 C 193.867188 54.699219 193.449219 52.964844 192.621094 51.472656 C 191.789062 49.976562 190.640625 48.808594 189.167969 47.964844 C 187.699219 47.121094 185.996094 46.699219 184.050781 46.699219 C 182.109375 46.699219 180.394531 47.121094 178.914062 47.964844 C 177.429688 48.808594 176.273438 49.976562 175.445312 51.472656 C 174.613281 52.964844 174.199219 54.699219 174.199219 56.667969 C 174.199219 58.636719 174.613281 60.367188 175.445312 61.863281 C 176.273438 63.355469 177.429688 64.527344 178.914062 65.371094 C 180.394531 66.210938 182.109375 66.632812 184.050781 66.632812 C 185.996094 66.632812 187.699219 66.210938 189.167969 65.371094 C 190.640625 64.527344 191.789062 63.355469 192.621094 61.863281 M 171.78125 63.875 C 170.582031 61.777344 169.980469 59.375 169.980469 56.667969 C 169.980469 53.933594 170.582031 51.523438 171.78125 49.4375 C 172.984375 47.355469 174.636719 45.726562 176.746094 44.550781 C 178.855469 43.375 181.289062 42.785156 184.050781 42.785156 C 186.8125 42.785156 189.246094 43.375 191.355469 44.550781 C 193.464844 45.726562 195.113281 47.355469 196.300781 49.4375 C 197.488281 51.523438 198.085938 53.933594 198.085938 56.667969 C 198.085938 59.375 197.488281 61.777344 196.300781 63.875 C 195.113281 65.96875 193.464844 67.605469 191.355469 68.78125 C 189.246094 69.957031 186.8125 70.546875 184.050781 70.546875 C 181.289062 70.546875 178.855469 69.957031 176.746094 68.78125 C 174.636719 67.605469 172.984375 65.96875 171.78125 63.875 "/>
</g>
<path fill-rule="nonzero" fill="rgb(0%, 0%, 0%)" fill-opacity="1" d="M 202.761719 47.582031 C 202.761719 46.507812 202.644531 45.664062 202.417969 45.050781 C 202.1875 44.4375 201.867188 44 201.457031 43.746094 L 201.457031 43.4375 L 214.148438 43.4375 C 214.660156 43.4375 215.171875 43.414062 215.683594 43.363281 C 216.195312 43.3125 216.652344 43.234375 217.0625 43.132812 L 217.0625 48.691406 L 216.753906 48.691406 C 216.5 48.207031 216.066406 47.84375 215.453125 47.597656 C 214.839844 47.355469 214.007812 47.234375 212.960938 47.234375 L 206.863281 47.234375 L 206.863281 56.820312 L 215.300781 56.820312 C 216.195312 56.820312 216.855469 56.730469 217.292969 56.550781 C 217.726562 56.371094 218.058594 56.15625 218.289062 55.898438 L 218.59375 55.898438 L 218.59375 61.535156 L 218.289062 61.535156 C 218.058594 61.253906 217.726562 61.03125 217.292969 60.863281 C 216.855469 60.699219 216.195312 60.617188 215.300781 60.617188 L 206.863281 60.617188 L 206.863281 65.867188 C 206.863281 66.941406 206.976562 67.765625 207.210938 68.339844 C 207.4375 68.914062 207.785156 69.332031 208.246094 69.585938 L 208.246094 69.894531 L 201.574219 69.894531 L 201.574219 69.585938 C 201.957031 69.304688 202.25 68.871094 202.453125 68.28125 C 202.660156 67.695312 202.761719 66.890625 202.761719 65.867188 Z M 202.761719 47.582031 "/>
<path fill-rule="nonzero" fill="rgb(0%, 0%, 0%)" fill-opacity="1" d="M 223.003906 47.582031 C 223.003906 46.507812 222.890625 45.664062 222.660156 45.050781 C 222.429688 44.4375 222.109375 44 221.699219 43.746094 L 221.699219 43.4375 L 234.390625 43.4375 C 234.902344 43.4375 235.414062 43.414062 235.925781 43.363281 C 236.4375 43.3125 236.894531 43.234375 237.304688 43.132812 L 237.304688 48.691406 L 237 48.691406 C 236.742188 48.207031 236.308594 47.84375 235.695312 47.597656 C 235.082031 47.355469 234.25 47.234375 233.203125 47.234375 L 227.109375 47.234375 L 227.109375 56.820312 L 235.542969 56.820312 C 236.4375 56.820312 237.101562 56.730469 237.535156 56.550781 C 237.96875 56.371094 238.300781 56.15625 238.53125 55.898438 L 238.839844 55.898438 L 238.839844 61.535156 L 238.53125 61.535156 C 238.300781 61.253906 237.96875 61.03125 237.535156 60.863281 C 237.101562 60.699219 236.4375 60.617188 235.542969 60.617188 L 227.109375 60.617188 L 227.109375 65.867188 C 227.109375 66.941406 227.222656 67.765625 227.453125 68.339844 C 227.683594 68.914062 228.027344 69.332031 228.488281 69.585938 L 228.488281 69.894531 L 221.816406 69.894531 L 221.816406 69.585938 C 222.199219 69.304688 222.492188 68.871094 222.699219 68.28125 C 222.902344 67.695312 223.003906 66.890625 223.003906 65.867188 Z M 223.003906 47.582031 "/>
<g clip-path="url(#clip-2)">
<path fill-rule="nonzero" fill="rgb(0%, 0%, 0%)" fill-opacity="1" d="M 243.246094 47.582031 C 243.246094 46.507812 243.132812 45.664062 242.902344 45.050781 C 242.671875 44.4375 242.351562 44 241.941406 43.746094 L 241.941406 43.4375 L 254.328125 43.4375 C 254.839844 43.4375 255.355469 43.414062 255.878906 43.363281 C 256.402344 43.3125 256.871094 43.234375 257.28125 43.132812 L 257.28125 48.691406 L 256.972656 48.691406 C 256.71875 48.207031 256.277344 47.84375 255.652344 47.597656 C 255.023438 47.355469 254.1875 47.234375 253.140625 47.234375 L 247.351562 47.234375 L 247.351562 56.820312 L 255.476562 56.820312 C 256.371094 56.820312 257.042969 56.730469 257.488281 56.550781 C 257.9375 56.371094 258.277344 56.15625 258.507812 55.898438 L 258.777344 55.898438 L 258.777344 61.535156 L 258.507812 61.535156 C 258.277344 61.253906 257.9375 61.03125 257.488281 60.863281 C 257.042969 60.699219 256.371094 60.617188 255.476562 60.617188 L 247.351562 60.617188 L 247.351562 66.097656 L 256.933594 66.097656 C 257.980469 66.097656 258.8125 65.976562 259.425781 65.734375 C 260.039062 65.492188 260.472656 65.125 260.730469 64.640625 L 261.039062 64.640625 L 261.039062 70.199219 C 260.628906 70.070312 260.160156 69.988281 259.636719 69.953125 C 259.113281 69.910156 258.59375 69.894531 258.085938 69.894531 L 241.941406 69.894531 L 241.941406 69.585938 C 242.351562 69.304688 242.671875 68.863281 242.902344 68.265625 C 243.132812 67.664062 243.246094 66.828125 243.246094 65.753906 Z M 243.246094 47.582031 "/>
</g>
<g clip-path="url(#clip-3)">
<path fill-rule="nonzero" fill="rgb(0%, 0%, 0%)" fill-opacity="1" d="M 265.140625 47.582031 C 265.140625 46.507812 265.023438 45.664062 264.796875 45.050781 C 264.566406 44.4375 264.246094 44 263.835938 43.746094 L 263.835938 43.4375 L 276.21875 43.4375 C 276.730469 43.4375 277.25 43.414062 277.773438 43.363281 C 278.296875 43.3125 278.765625 43.234375 279.171875 43.132812 L 279.171875 48.691406 L 278.867188 48.691406 C 278.609375 48.207031 278.167969 47.84375 277.542969 47.597656 C 276.917969 47.355469 276.078125 47.234375 275.03125 47.234375 L 269.242188 47.234375 L 269.242188 56.820312 L 277.371094 56.820312 C 278.265625 56.820312 278.9375 56.730469 279.382812 56.550781 C 279.832031 56.371094 280.167969 56.15625 280.398438 55.898438 L 280.667969 55.898438 L 280.667969 61.535156 L 280.398438 61.535156 C 280.167969 61.253906 279.832031 61.03125 279.382812 60.863281 C 278.9375 60.699219 278.265625 60.617188 277.371094 60.617188 L 269.242188 60.617188 L 269.242188 66.097656 L 278.828125 66.097656 C 279.875 66.097656 280.707031 65.976562 281.320312 65.734375 C 281.933594 65.492188 282.367188 65.125 282.625 64.640625 L 282.929688 64.640625 L 282.929688 70.199219 C 282.519531 70.070312 282.054688 69.988281 281.53125 69.953125 C 281.003906 69.910156 280.488281 69.894531 279.976562 69.894531 L 263.835938 69.894531 L 263.835938 69.585938 C 264.246094 69.304688 264.566406 68.863281 264.796875 68.265625 C 265.023438 67.664062 265.140625 66.828125 265.140625 65.753906 Z M 265.140625 47.582031 "/>
</g>
<path fill-rule="nonzero" fill="rgb(0%, 0%, 0%)" fill-opacity="1" d="M 3.101562 7.457031 C 3.101562 5.515625 2.824219 4.046875 2.277344 3.046875 C 1.726562 2.042969 0.96875 1.320312 0 0.867188 L 0 0.1875 L 9.109375 0.1875 L 9.109375 46.21875 L 27.136719 29.84375 C 28.6875 28.355469 28.816406 27.160156 27.523438 26.257812 L 27.523438 25.675781 L 40.316406 25.675781 L 40.316406 26.257812 C 39.667969 26.515625 39.007812 26.871094 38.328125 27.324219 C 37.652344 27.773438 36.828125 28.421875 35.859375 29.261719 L 24.617188 39.4375 L 37.601562 65.117188 C 38.699219 67.25 39.894531 68.671875 41.1875 69.382812 L 41.1875 69.964844 L 29.847656 69.964844 L 29.847656 69.382812 C 31.65625 68.542969 32.046875 67.089844 31.011719 65.023438 L 20.15625 43.507812 L 9.109375 53.390625 L 9.109375 63.179688 C 9.109375 65.183594 9.320312 66.589844 9.742188 67.394531 C 10.160156 68.203125 10.820312 68.867188 11.726562 69.382812 L 11.726562 69.964844 L 0.582031 69.964844 L 0.582031 69.382812 C 1.488281 68.867188 2.132812 68.203125 2.519531 67.394531 C 2.910156 66.589844 3.101562 65.183594 3.101562 63.179688 Z M 3.101562 7.457031 "/>
<path fill-rule="nonzero" fill="rgb(0%, 0%, 0%)" fill-opacity="1" d="M 48.941406 32.941406 C 48.941406 31.003906 48.664062 29.535156 48.117188 28.535156 C 47.566406 27.53125 46.808594 26.808594 45.839844 26.351562 L 45.839844 25.675781 L 54.660156 25.675781 L 54.660156 30.8125 C 56.015625 28.871094 57.886719 27.308594 60.28125 26.109375 C 62.667969 24.917969 65.1875 24.316406 67.839844 24.316406 C 72.230469 24.316406 75.671875 25.675781 78.160156 28.386719 C 80.644531 31.101562 81.890625 34.816406 81.890625 39.535156 L 81.890625 63.179688 C 81.890625 65.183594 82.101562 66.589844 82.519531 67.394531 C 82.941406 68.203125 83.601562 68.867188 84.507812 69.382812 L 84.507812 69.964844 L 73.363281 69.964844 L 73.363281 69.382812 C 74.265625 68.867188 74.914062 68.203125 75.300781 67.394531 C 75.6875 66.589844 75.882812 65.183594 75.882812 63.179688 L 75.882812 40.597656 C 75.882812 37.304688 75.042969 34.703125 73.363281 32.796875 C 71.683594 30.894531 69.324219 29.9375 66.289062 29.9375 C 64.027344 29.9375 61.863281 30.503906 59.792969 31.632812 C 57.726562 32.765625 56.113281 34.300781 54.949219 36.238281 L 54.949219 63.179688 C 54.949219 65.183594 55.160156 66.589844 55.578125 67.394531 C 56 68.203125 56.660156 68.867188 57.566406 69.382812 L 57.566406 69.964844 L 46.421875 69.964844 L 46.421875 69.382812 C 47.328125 68.867188 47.972656 68.203125 48.359375 67.394531 C 48.746094 66.589844 48.941406 65.183594 48.941406 63.179688 Z M 48.941406 32.941406 "/>
<path fill-rule="nonzero" fill="rgb(0%, 0%, 0%)" fill-opacity="1" d="M 94.390625 11.914062 C 93.484375 11.007812 93.035156 9.910156 93.035156 8.617188 C 93.035156 7.261719 93.484375 6.148438 94.390625 5.273438 C 95.296875 4.402344 96.425781 3.964844 97.785156 3.964844 C 99.140625 3.964844 100.269531 4.402344 101.175781 5.273438 C 102.078125 6.148438 102.53125 7.261719 102.53125 8.617188 C 102.53125 9.910156 102.078125 11.007812 101.175781 11.914062 C 100.269531 12.820312 99.140625 13.269531 97.785156 13.269531 C 96.425781 13.269531 95.296875 12.820312 94.390625 11.914062 M 101.175781 63.179688 C 101.175781 65.183594 101.382812 66.589844 101.804688 67.394531 C 102.222656 68.203125 102.886719 68.867188 103.792969 69.382812 L 103.792969 69.964844 L 92.648438 69.964844 L 92.648438 69.382812 C 93.550781 68.867188 94.195312 68.203125 94.585938 67.394531 C 94.972656 66.589844 95.167969 65.183594 95.167969 63.179688 L 95.167969 32.941406 C 95.167969 31.003906 94.890625 29.535156 94.34375 28.535156 C 93.792969 27.53125 93.035156 26.804688 92.066406 26.355469 L 92.066406 25.675781 L 101.175781 25.675781 Z M 101.175781 63.179688 "/>
<g clip-path="url(#clip-4)">
<path fill-rule="nonzero" fill="rgb(0%, 0%, 0%)" fill-opacity="1" d="M 117.554688 30.8125 L 109.703125 30.8125 L 109.703125 25.675781 L 117.554688 25.675781 L 117.554688 18.890625 C 117.554688 17.664062 117.375 16.808594 117.019531 16.324219 C 116.664062 15.839844 116.132812 15.5 115.421875 15.304688 L 115.421875 14.722656 L 123.175781 11.039062 L 123.5625 11.039062 L 123.5625 25.675781 L 133.347656 25.675781 L 133.347656 30.8125 L 123.5625 30.8125 L 123.5625 55.328125 C 123.5625 58.691406 124.125 61.097656 125.257812 62.550781 C 126.386719 64.003906 127.953125 64.730469 129.957031 64.730469 C 131.894531 64.730469 133.382812 63.859375 134.414062 62.113281 L 134.898438 62.113281 L 134.898438 69.769531 C 134.640625 69.835938 134.058594 69.980469 133.15625 70.207031 C 132.25 70.433594 131.152344 70.546875 129.859375 70.546875 C 125.660156 70.546875 122.558594 69.300781 120.558594 66.8125 C 118.554688 64.328125 117.554688 60.628906 117.554688 55.71875 Z M 117.554688 30.8125 "/>
</g>
</svg>
